<svg xmlns="http://www.w3.org/2000/svg"  viewBox="0 0 32 32" width="32px" height="32px" fill-rule="evenodd" clip-rule="evenodd" baseProfile="basic"><path fill="#91c14b" fill-rule="evenodd" d="M20.003,30.003v-2h2v-2	h2v-2h2v-2h2v-6h-2v-6h2v-2h2v-4h-2v2h-2v2h-2v-2h-2v-2h-2v-2h-8v2h-2v2h-2v2h-2v-2h-2v-2h-2v4h2v2h2v6h-2v6h2v2h2v2h2v2h2v2H20.003	z" clip-rule="evenodd"/><path fill="#00953f" fill-rule="evenodd" d="M10.003,14.003h-2v-4	l1-1h4l1,1v2L10.003,14.003z" clip-rule="evenodd"/><path fill="#8c1539" fill-rule="evenodd" d="M8.001,8.004v1.999	h6.001V8.004H8.001z" clip-rule="evenodd"/><path fill="#064678" fill-rule="evenodd" d="M12.001,12.004	l-0.999,0.999l0.999,1h2.001v-1.999H12.001z" clip-rule="evenodd"/><path fill="#e6e5e5" fill-rule="evenodd" d="M10.001,12.004v1.999	h2.001v-1.999H10.001z" clip-rule="evenodd"/><path fill="#00953f" fill-rule="evenodd" d="M10.001,20.004v1.999	h2.001v-1.999H10.001z" clip-rule="evenodd"/><path fill="#00953f" fill-rule="evenodd" d="M12.001,22.003v2.001	h8.001v-2.001H12.001z" clip-rule="evenodd"/><path fill="#00953f" fill-rule="evenodd" d="M20.001,20.004v1.999	h2.001v-1.999H20.001z" clip-rule="evenodd"/><path fill="#bdd94e" fill-rule="evenodd" d="M14.003,26.003v2.001	h3.999v-2.001H14.003z" clip-rule="evenodd"/><path fill="#bdd94e" fill-rule="evenodd" d="M12.003,18.003v-2h2v-2	h4v2h2v2H12.003z" clip-rule="evenodd"/><path fill="#00953f" fill-rule="evenodd" d="M22.003,14.003h2v-4	l-1-1h-4l-1,1v2L22.003,14.003z" clip-rule="evenodd"/><path fill="#064678" fill-rule="evenodd" d="M20.001,12.004	L21,13.003l-0.999,1H18v-1.999H20.001z" clip-rule="evenodd"/><path fill="#e6e5e5" fill-rule="evenodd" d="M22.001,12.004v1.999H20	v-1.999H22.001z" clip-rule="evenodd"/><path fill="#8c1539" fill-rule="evenodd" d="M18.001,8.004v1.999	h6.001V8.004H18.001z" clip-rule="evenodd"/></svg>